<?xml version="1.0" encoding="UTF-8" standalone="no"?><!DOCTYPE svg PUBLIC "-//W3C//DTD SVG 1.1//EN" "http://www.w3.org/Graphics/SVG/1.1/DTD/svg11.dtd"><svg width="100%" height="100%" viewBox="0 0 140 140" version="1.1" xmlns="http://www.w3.org/2000/svg" xmlns:xlink="http://www.w3.org/1999/xlink" xml:space="preserve" xmlns:serif="http://www.serif.com/" style="fill-rule:evenodd;clip-rule:evenodd;stroke-linejoin:round;stroke-miterlimit:1.41421;"><circle cx="70" cy="70" r="70" style="fill:#e5b233;"/><path d="M58.181,66.548c0.29,-1.581 -0.106,-3.268 -1.146,-4.77c-1.637,-2.364 -4.718,-4.184 -8.254,-4.821c-0.89,-0.151 -1.753,-0.216 -2.675,-0.166l-3.851,-3.812c2.204,1.688 4.722,2.703 7.028,2.703c0,0 0.001,0 0.001,0c1.812,0 3.367,-0.643 4.492,-1.763c1.523,-1.502 2.092,-3.767 1.603,-6.336c-0.351,-1.849 -1.232,-3.728 -2.525,-5.41l3.939,3.926c-0.045,0.942 -0.002,1.813 0.156,2.646c0.949,5.414 4.552,9.494 8.478,9.494l0,0c0.462,0 0.678,-0.03 1.002,-0.088c2.114,-0.377 3.86,-1.905 4.904,-4.302c0.974,-2.237 1.237,-5.012 0.737,-7.811c-0.721,-4.137 -3.514,-6.714 -4.752,-7.675l-9.44,-9.454l-0.022,-0.021c-0.426,-0.405 -0.982,-0.628 -1.564,-0.628c-0.584,0 -1.14,0.224 -1.565,0.63l-0.026,0.026c-0.432,0.439 -0.665,1.013 -0.658,1.617c0.007,0.595 0.248,1.151 0.664,1.553l5.719,5.734c-0.871,0.808 -1.689,1.954 -2.323,3.26l-11.205,-11.202c-0.425,-0.412 -0.986,-0.639 -1.577,-0.639c-0.599,0 -1.16,0.231 -1.577,0.648c-0.869,0.862 -0.881,2.247 -0.027,3.153l6.485,6.473c-2.145,-1.572 -4.874,-2.479 -7.601,-2.479c-0.772,0 -1.495,0.08 -2.129,0.232l-6.636,-6.624c-0.413,-0.409 -0.987,-0.644 -1.577,-0.644c-0.597,0 -1.166,0.24 -1.566,0.658c-0.433,0.434 -0.669,0.999 -0.666,1.592c0.003,0.592 0.245,1.152 0.681,1.578l6.621,6.668c-0.545,2.417 -0.158,6.471 2.22,9.72l-6.468,-6.473c-0.416,-0.432 -0.993,-0.68 -1.587,-0.68c-0.592,0 -1.166,0.246 -1.582,0.674c-0.416,0.411 -0.65,0.957 -0.659,1.541c-0.009,0.605 0.224,1.181 0.664,1.631l11.193,11.165c-1.325,0.645 -2.47,1.462 -3.276,2.337l-5.713,-5.732l-0.022,-0.021c-0.426,-0.405 -0.984,-0.628 -1.572,-0.628c-0.596,0 -1.155,0.228 -1.573,0.641c-0.444,0.437 -0.694,1.037 -0.683,1.646c0.011,0.594 0.255,1.145 0.691,1.554l9.429,9.443c0.967,1.235 3.559,4.145 7.651,4.865c0.921,0.165 1.849,0.363 2.759,0.363l0,0c4.888,0.001 8.745,-2.531 9.38,-5.992Zm1.434,-23.062c0.746,-2.284 2.153,-4.021 3.098,-4.497l1.31,-0.659l1.715,1.718l0.116,0.102c2.058,1.573 3.533,3.922 3.945,6.29c0.422,2.36 0.217,4.664 -0.577,6.487c-0.725,1.665 -1.856,2.713 -3.186,2.95c-0.192,0.034 -0.388,0.052 -0.583,0.052l0,0c-2.74,0 -5.471,-3.332 -6.219,-7.601c-0.151,-0.797 -0.185,-1.642 -0.102,-2.581l0.047,-0.537l-0.096,-0.096l0.532,-1.628Zm-19.905,-2.933l0.244,-0.672l0.603,-0.231c0.517,-0.197 1.243,-0.306 2.045,-0.306c2.121,0 5.163,0.783 7.335,2.978c1.674,1.695 2.801,3.708 3.174,5.668c0.34,1.789 0,3.342 -0.96,4.289c-0.868,0.864 -2.038,1.094 -2.867,1.094c0,0 0,0 0,0c-2.293,0 -4.914,-1.324 -7.011,-3.459c-2.83,-2.878 -3.306,-7.306 -2.563,-9.361Zm16.2,25.464c-0.431,2.347 -3.354,3.986 -7.109,3.986c-0.774,0 -1.564,-0.072 -2.354,-0.214c-2.337,-0.411 -4.682,-1.887 -6.274,-3.948l-1.823,-1.839l0.654,-1.3c0.482,-0.96 2.19,-2.342 4.52,-3.127l1.582,-0.533l0.125,0.126l0.541,-0.052c0.92,-0.087 1.759,-0.058 2.612,0.087c2.933,0.529 5.458,1.961 6.753,3.832c0.475,0.688 0.996,1.764 0.773,2.982Zm14.944,-3.325c0.966,5.519 4.521,9.618 8.453,9.618l0.001,0c0.331,0 0.665,-0.122 0.991,-0.18c4.171,-0.748 6.697,-6.241 5.633,-12.186c-0.968,-5.487 -6.018,-9.481 -8.95,-9.481c-0.19,0 -0.375,0.05 -0.552,0.082c-2.908,0.533 -6.64,6.331 -5.576,12.147Zm5.988,-9.932c0.039,-0.007 0.086,-0.011 0.139,-0.011c1.587,0 5.861,2.93 6.676,7.553c0.827,4.615 -0.897,9.04 -3.766,9.555c-0.192,0.034 -0.389,0.143 -0.584,0.143c0,0 0,0 0,0c-2.718,0 -5.432,-3.437 -6.18,-7.715c-0.906,-4.955 2.446,-9.293 3.715,-9.525Zm7.818,23.806c0.952,5.416 4.602,9.6 8.49,9.6c0.001,0 0.001,0 0.001,0c0.332,0 0.665,-0.129 0.989,-0.188c2.113,-0.377 3.853,-1.958 4.898,-4.36c0.975,-2.24 1.236,-5.037 0.734,-7.833c-0.987,-5.497 -6.034,-9.489 -8.954,-9.489c-0.18,0 -0.354,0.058 -0.531,0.088c-2.915,0.531 -6.674,6.347 -5.627,12.182Zm6.03,-9.964c0.036,-0.006 0.079,-0.009 0.128,-0.009c1.579,0 5.849,2.94 6.682,7.575c0.421,2.352 0.215,4.653 -0.579,6.479c-0.727,1.671 -1.859,2.821 -3.189,3.058c-0.191,0.035 -0.386,0.152 -0.581,0.152l0,0c-2.738,0 -5.468,-3.434 -6.217,-7.694c-0.892,-4.973 2.488,-9.33 3.756,-9.561Zm-18.634,13.716c0.749,-4.223 -3.387,-8.405 -9.427,-9.522c-0.648,-0.114 -1.317,-0.172 -1.989,-0.172c-5.009,0 -9.636,3.172 -10.129,5.807c-0.524,2.917 3.567,8.448 9.405,9.499c0.916,0.165 1.841,0.249 2.751,0.249c4.907,-0.001 8.769,-2.41 9.389,-5.861Zm-2.273,-0.406c-0.413,2.293 -3.406,3.957 -7.117,3.957c-0.772,0 -1.559,-0.072 -2.341,-0.213c-4.968,-0.894 -7.771,-5.539 -7.542,-6.809c0.211,-1.129 3.571,-3.913 7.857,-3.913c0.538,0 1.072,0.046 1.579,0.134c4.686,0.867 8.079,3.938 7.564,6.844Zm6.685,4.725c-0.648,-0.114 -1.317,-0.171 -1.988,-0.171c-5.018,0 -9.653,3.185 -10.147,5.83c-0.267,1.481 0.65,3.585 2.393,5.491c1.111,1.215 3.502,3.348 7.032,3.983c0.918,0.165 1.844,0.248 2.751,0.248c0,0 0,0 0,0c4.901,0 8.749,-2.421 9.353,-5.872c0.296,-1.568 -0.091,-3.187 -1.118,-4.683c-1.629,-2.373 -4.721,-4.177 -8.276,-4.826Zm7.122,9.096c-0.403,2.304 -3.382,3.976 -7.081,3.976c-0.771,0 -1.56,-0.071 -2.343,-0.212c-2.861,-0.515 -4.822,-2.269 -5.736,-3.268c-1.417,-1.55 -1.92,-2.993 -1.826,-3.516c0.212,-1.136 3.581,-3.938 7.876,-3.938c0.537,0 1.072,0.046 1.581,0.136c2.956,0.539 5.49,1.982 6.78,3.859c0.468,0.682 0.979,1.747 0.749,2.963Zm27.629,15.046c-6.535,-6.538 -13.069,-13.075 -19.603,-19.613c-9.579,-9.584 -19.158,-19.169 -28.737,-28.753c-1.316,-1.317 -2.633,-2.634 -3.949,-3.951c-1.58,-1.581 -4.03,0.868 -2.449,2.449c6.534,6.538 13.068,13.076 19.602,19.614c9.579,9.584 19.158,19.168 28.737,28.753c1.316,1.317 2.633,2.634 3.949,3.951c1.581,1.581 4.03,-0.868 2.45,-2.45Z" style="fill:#fff;fill-rule:nonzero;"/></svg>