<?xml version="1.0" encoding="UTF-8" standalone="no"?><!DOCTYPE svg PUBLIC "-//W3C//DTD SVG 1.1//EN" "http://www.w3.org/Graphics/SVG/1.1/DTD/svg11.dtd"><svg width="100%" height="100%" viewBox="0 0 140 140" version="1.1" xmlns="http://www.w3.org/2000/svg" xmlns:xlink="http://www.w3.org/1999/xlink" xml:space="preserve" xmlns:serif="http://www.serif.com/" style="fill-rule:evenodd;clip-rule:evenodd;stroke-linejoin:round;stroke-miterlimit:1.41421;"><circle cx="70" cy="70" r="70" style="fill:#448935;"/><path d="M86.243,44.297c1.496,-3.073 1.308,-6.511 -0.517,-9.431c-1.833,-2.928 -5.013,-4.748 -8.298,-4.748c-1.893,0 -4.714,0.601 -7.487,3.43c-2.008,-2.226 -4.597,-3.45 -7.315,-3.45c-3.069,0 -6.057,1.576 -7.797,4.113c-1.733,2.53 -2.042,5.597 -0.868,8.635c4.407,11.426 14.323,16.88 15.442,17.466c0.126,0.064 0.269,0.098 0.412,0.098c0.108,0 0.212,-0.018 0.319,-0.057c0.415,-0.155 10.224,-3.935 16.109,-16.056Zm-16.373,14.194c-1.911,-1.099 -10.407,-6.429 -14.215,-16.299c-0.952,-2.465 -0.713,-4.935 0.674,-6.954c1.406,-2.05 3.819,-3.323 6.298,-3.323c2.483,0 4.81,1.268 6.554,3.571c0.167,0.217 0.42,0.348 0.69,0.358c0.275,0.017 0.538,-0.101 0.727,-0.319c1.998,-2.349 4.36,-3.592 6.831,-3.592c2.669,0 5.258,1.493 6.756,3.896c1.486,2.376 1.643,5.173 0.43,7.675c-4.948,10.177 -12.939,14.187 -14.745,14.987Zm-8.866,6.882l-0.844,-1.367l-0.014,-0.022c-0.132,-0.203 -0.293,-0.452 -0.474,-0.731l-0.177,-0.318l-0.018,-0.032c-0.569,-0.946 -1.236,-2.011 -1.929,-3.08c-2.065,-3.186 -3.782,-5.412 -5.241,-6.796c-0.704,-0.686 -1.367,-1.164 -1.98,-1.426c-0.598,-0.248 -1.127,-0.27 -1.573,-0.064c-0.527,0.236 -0.938,0.768 -1.217,1.57c-0.356,0.989 -0.19,2.135 0.506,3.504l1.561,2.551l2.802,4.107c0.506,0.89 0.819,1.598 0.985,2.229c0.231,0.869 0.195,1.646 -0.108,2.315c-0.238,0.533 -0.641,1.019 -1.203,1.453c-0.439,-0.428 -0.805,-0.868 -1.191,-1.33l-0.061,-0.073c-0.512,-0.613 -0.946,-1.122 -1.489,-1.617c-1.716,-1.589 -3.145,-3.258 -4.249,-4.96c-3.451,-5.323 -4.215,-11.493 -2.479,-19.988l0.099,-0.441c0.206,-0.947 0.753,-3.46 0.954,-5.74c0.169,-2.012 0.033,-3.327 -0.417,-4.018c-0.289,-0.443 -0.66,-0.56 -0.924,-0.579c-0.632,-0.062 -1.453,0.353 -2.45,1.235l-0.104,0.105c-0.172,0.201 -0.361,0.557 -0.577,1.084c-0.874,2.1 -2.052,6.37 -2.755,8.921l-0.121,0.441c0,0 -0.184,0.717 -0.224,0.87c-1.449,5.2 -1.435,9.982 0.042,15.046c0.772,2.686 1.939,5.472 3.783,9.027c3.526,6.886 8.868,20.145 5.032,31.561l2.034,0.684c4.087,-12.163 -1.476,-26.036 -5.159,-33.228c-1.777,-3.429 -2.896,-6.092 -3.628,-8.64c-1.362,-4.668 -1.373,-9.076 -0.032,-13.891c0.044,-0.168 0.226,-0.877 0.226,-0.878l0.116,-0.421c0.645,-2.339 1.846,-6.691 2.671,-8.673c0.109,-0.267 0.184,-0.418 0.225,-0.493c0.061,-0.052 0.118,-0.1 0.173,-0.144c0.022,0.411 0.019,0.993 -0.049,1.807c-0.189,2.14 -0.715,4.557 -0.912,5.462l-0.101,0.455c-1.862,9.109 -1.006,15.772 2.776,21.604c1.201,1.852 2.745,3.657 4.598,5.372c0.448,0.409 0.834,0.862 1.293,1.412l0.06,0.072c0.449,0.539 0.913,1.096 1.509,1.652l1.156,1.092l1.279,-0.935c0.948,-0.68 1.641,-1.496 2.056,-2.423c0.511,-1.129 0.587,-2.39 0.226,-3.746c-0.216,-0.823 -0.603,-1.707 -1.217,-2.783l-2.829,-4.149l-1.483,-2.417c-0.393,-0.782 -0.521,-1.377 -0.377,-1.778c0.025,-0.07 0.048,-0.129 0.07,-0.179c0.236,0.125 0.631,0.387 1.189,0.93c1.326,1.258 2.984,3.417 4.928,6.417c0.852,1.314 1.492,2.356 1.881,3.002l0.185,0.334l0.038,0.062c0.186,0.288 0.353,0.545 0.489,0.755l0.82,1.328c1.611,2.733 2.518,5.435 2.854,8.505c0.23,2.058 0.224,4.301 -0.02,6.857c-0.141,1.478 -0.556,3.42 -1.23,5.764c-2.304,7.748 -7.012,17.507 -8.929,21.344l1.919,0.959c1.943,-3.887 6.715,-13.781 9.07,-21.7c0.724,-2.515 1.151,-4.532 1.306,-6.164c0.259,-2.705 0.264,-5.092 0.017,-7.297c-0.37,-3.383 -1.369,-6.36 -3.143,-9.367Zm42.908,-22.18c-0.044,-0.169 -0.228,-0.887 -0.233,-0.907l-0.115,-0.417c-0.704,-2.552 -1.883,-6.824 -2.755,-8.918c-0.212,-0.521 -0.398,-0.874 -0.559,-1.067l-0.057,-0.069l-0.066,-0.06c-1.025,-0.905 -1.867,-1.319 -2.501,-1.229c-0.247,0.031 -0.602,0.155 -0.874,0.573c-0.449,0.692 -0.586,2.006 -0.416,4.022c0.181,2.047 0.631,4.254 0.955,5.739l0.093,0.42c1.74,8.513 0.977,14.683 -2.474,20.006c-1.105,1.703 -2.535,3.372 -4.244,4.955c-0.546,0.498 -0.982,1.008 -1.495,1.623l-0.06,0.072c-0.385,0.462 -0.751,0.901 -1.192,1.33c-0.559,-0.43 -0.964,-0.919 -1.205,-1.456c-0.301,-0.666 -0.336,-1.444 -0.104,-2.315c0.164,-0.627 0.477,-1.335 0.983,-2.226l2.774,-4.062l1.547,-2.521l0.042,-0.075c0.696,-1.367 0.862,-2.513 0.511,-3.492c-0.283,-0.813 -0.694,-1.345 -1.222,-1.581c-0.445,-0.207 -0.975,-0.185 -1.583,0.068c-0.603,0.257 -1.265,0.735 -1.959,1.411c-1.468,1.394 -3.186,3.62 -5.253,6.806c-0.697,1.077 -1.364,2.142 -1.928,3.08l-0.195,0.351c-0.18,0.278 -0.342,0.527 -0.474,0.73l-0.846,1.37l-0.012,0.019c-1.774,3.008 -2.772,5.985 -3.142,9.364c-0.248,2.207 -0.243,4.595 0.017,7.299c0.154,1.632 0.581,3.649 1.308,6.174c2.354,7.916 7.125,17.807 9.067,21.692l1.92,-0.96c-1.917,-3.835 -6.624,-13.59 -8.927,-21.335c-0.677,-2.353 -1.092,-4.295 -1.232,-5.774c-0.245,-2.556 -0.252,-4.798 -0.02,-6.859c0.336,-3.066 1.242,-5.768 2.853,-8.501l0.82,-1.329c0.137,-0.21 0.304,-0.468 0.49,-0.756l0.222,-0.394c0.55,-0.915 1.2,-1.953 1.88,-3.003c1.946,-3 3.604,-5.159 4.94,-6.426c0.553,-0.539 0.948,-0.799 1.178,-0.92c0.023,0.051 0.048,0.114 0.074,0.188c0.139,0.391 0.012,0.986 -0.381,1.769l-1.483,2.416l-2.783,4.077l-0.046,0.073c-0.614,1.077 -1.001,1.961 -1.216,2.779c-0.361,1.358 -0.286,2.619 0.223,3.745c0.417,0.93 1.11,1.747 2.05,2.422l1.287,0.941l1.152,-1.088c0.6,-0.56 1.065,-1.117 1.514,-1.656l0.06,-0.072c0.459,-0.551 0.846,-1.005 1.299,-1.417c1.845,-1.709 3.389,-3.515 4.591,-5.367c3.783,-5.833 4.639,-12.496 2.773,-21.621l-0.095,-0.434c-0.198,-0.907 -0.724,-3.318 -0.913,-5.462c-0.069,-0.816 -0.072,-1.4 -0.05,-1.811c0.055,0.043 0.112,0.091 0.173,0.143c0.041,0.076 0.117,0.228 0.227,0.499c0.824,1.978 2.025,6.332 2.67,8.671l0.11,0.398c0,0 0.186,0.726 0.235,0.914c1.337,4.799 1.326,9.207 -0.037,13.878c-0.731,2.544 -1.85,5.207 -3.631,8.641c-3.68,7.187 -9.243,21.06 -5.155,33.223l2.034,-0.684c-3.837,-11.417 1.506,-24.675 5.029,-31.556c1.846,-3.56 3.014,-6.345 3.785,-9.027c1.478,-5.068 1.492,-9.85 0.047,-15.034Z" style="fill:#fff;fill-rule:nonzero;"/></svg>