<?xml version="1.0" encoding="UTF-8" standalone="no"?><!DOCTYPE svg PUBLIC "-//W3C//DTD SVG 1.1//EN" "http://www.w3.org/Graphics/SVG/1.1/DTD/svg11.dtd"><svg width="100%" height="100%" viewBox="0 0 140 140" version="1.1" xmlns="http://www.w3.org/2000/svg" xmlns:xlink="http://www.w3.org/1999/xlink" xml:space="preserve" xmlns:serif="http://www.serif.com/" style="fill-rule:evenodd;clip-rule:evenodd;stroke-linejoin:round;stroke-miterlimit:1.41421;"><circle cx="70" cy="70" r="70" style="fill:#044170;"/><g id="g660"><path id="path672" d="M107.485,93.519c1.037,0.778 1.556,2.593 1.684,4.019c-2.202,-0.778 -3.499,-4.019 -3.889,-5.055c0.39,-1.038 1.687,-4.279 3.889,-5.057c-0.128,1.426 -0.647,3.241 -1.684,4.019c-0.389,0.259 -0.518,0.648 -0.518,1.038c0,0.388 0.257,0.777 0.518,1.036m-15.167,4.149c-0.259,0 -5.834,0.648 -8.167,-5.316c0.518,-1.296 2.592,-5.185 8.296,-5.185c0.13,0 6.481,0.259 9.982,5.185c-3.63,5.056 -9.982,5.316 -10.111,5.316m19.573,-11.797c0,-0.648 -0.517,-1.166 -1.166,-1.297c-3.758,-0.389 -5.963,2.852 -7.129,5.185c-4.407,-4.925 -10.889,-5.185 -11.149,-5.185c-7,0 -10.24,4.927 -10.889,7.519c-0.13,0.259 0,0.519 0,0.778c2.074,5.963 7,7.518 10.11,7.518l1.039,0c0.777,0 6.87,-0.518 11.018,-5.185c1.166,2.334 3.371,5.574 7.131,5.185c0.647,0 1.167,-0.647 1.167,-1.296c0,-0.518 0,-4.278 -1.816,-6.61c1.684,-2.464 1.684,-6.224 1.684,-6.612" style="fill:#fff;fill-rule:nonzero;"/><path id="path676" d="M87.262,90.149c0.43,0 0.778,0.348 0.778,0.778c0,0.43 -0.348,0.778 -0.778,0.778c-0.43,0 -0.778,-0.348 -0.778,-0.778c0,-0.43 0.348,-0.778 0.778,-0.778" style="fill:#fff;fill-rule:nonzero;"/><path id="path680" d="M98.022,115.168c1.684,1.167 2.332,4.019 2.462,5.963c-3.5,-0.647 -5.444,-5.703 -5.833,-7c0.519,-1.426 2.463,-6.352 5.833,-7c-0.13,1.945 -0.778,4.796 -2.462,5.963c-0.389,0.259 -0.519,0.648 -0.519,1.037c0,0.389 0.13,0.777 0.519,1.037m-19.706,6.092c-0.258,0 -7.778,0.908 -11.017,-7.129c0.518,-1.556 3.239,-7.13 11.017,-7.13c0.131,0 8.687,0.389 13.223,7.13c-4.536,6.74 -13.092,7.129 -13.223,7.129m24.761,-15.555c0,-0.649 -0.518,-1.167 -1.166,-1.296c-4.927,-0.519 -7.779,4.018 -9.075,7c-5.444,-6.611 -14,-7 -14.389,-7c-10.889,0 -13.611,9.203 -13.742,9.333c-0.129,0.259 0,0.519 0,0.778c2.982,8.426 10.112,9.333 12.835,9.333l1.037,0c0.778,0 9.074,-0.518 14.389,-7c1.296,2.982 4.148,7.519 9.074,7c0.648,0 1.167,-0.648 1.167,-1.296c0,-0.259 0.129,-5.444 -2.463,-8.426c2.463,-2.981 2.333,-8.166 2.333,-8.426" style="fill:#fff;fill-rule:nonzero;"/><path id="path684" d="M71.706,111.409c0.502,0 0.908,0.406 0.908,0.908c0,0.5 -0.406,0.906 -0.908,0.906c-0.501,0 -0.908,-0.406 -0.908,-0.906c0,-0.502 0.407,-0.908 0.908,-0.908" style="fill:#fff;fill-rule:nonzero;"/><path id="path688" d="M30.094,45.685c1.945,2.333 4.149,4.926 8.556,4.926c4.407,0 6.611,-2.593 8.555,-4.926c1.815,-2.204 3.369,-4.018 6.482,-4.018c3.112,0 4.665,1.814 6.482,4.018c1.685,2.074 3.759,4.407 7.259,4.926l0,24.371c-1.555,0.519 -2.722,2.074 -2.722,3.759c0,1.685 1.167,3.241 2.722,3.759l0,7.26c0,4.796 -3.89,8.815 -8.815,8.815c-4.797,0 -8.815,-3.889 -8.815,-8.815l0,-1.815l0.776,0.778c0.52,0.519 1.297,0.519 1.817,0c0.519,-0.518 0.519,-1.296 0,-1.815l-2.593,-2.593l0,-1.685l2.852,2.852c0.518,0.518 1.297,0.518 1.813,0c0.52,-0.518 0.52,-1.296 0,-1.815l-5.184,-5.185c-0.518,-0.518 -1.297,-0.518 -1.814,0l-5.056,5.185c-0.518,0.519 -0.518,1.297 0,1.815c0.26,0.26 0.648,0.389 0.908,0.389c0.259,0 0.648,-0.129 0.907,-0.389l2.852,-2.852l0,1.685l-2.722,2.723c-0.519,0.518 -0.519,1.296 0,1.815c0.259,0.259 0.648,0.389 0.907,0.389c0.259,0 0.648,-0.13 0.908,-0.389l0.778,-0.778l0,1.814c0,6.352 5.055,11.408 11.405,11.408c5.965,0 10.891,-4.667 11.41,-10.5l0,-8.167c1.555,-0.518 2.722,-2.074 2.722,-3.759c0,-1.815 -1.167,-3.241 -2.722,-3.759l0,-24.501c3.499,-0.519 5.442,-2.722 7.13,-4.926c1.814,-2.204 3.37,-4.018 6.481,-4.018c3.111,0 4.667,1.814 6.482,4.018c1.945,2.333 4.147,4.926 8.555,4.926c4.408,0 6.611,-2.593 8.555,-4.926c1.816,-2.204 3.372,-4.018 6.481,-4.018c0.78,0 1.297,-0.52 1.297,-1.297c0,-0.777 -0.517,-1.297 -1.297,-1.297c-4.406,0 -6.609,2.594 -8.554,4.927c-1.816,2.203 -3.371,4.018 -6.482,4.018c-3.112,0 -4.667,-1.815 -6.481,-4.018c-1.945,-2.333 -4.149,-4.927 -8.556,-4.927c-4.407,0 -6.612,2.594 -8.555,4.927c-1.557,1.814 -2.854,3.5 -5.186,3.889l0,-7.26c3.5,-0.518 5.444,-2.722 7.129,-4.925c1.816,-2.205 3.371,-4.019 6.483,-4.019c3.111,0 4.667,1.814 6.481,4.019c1.944,2.333 4.148,4.925 8.556,4.925c4.407,0 6.611,-2.592 8.556,-4.925c1.814,-2.205 3.369,-4.019 6.481,-4.019c0.777,0 1.297,-0.519 1.297,-1.297c0,-0.778 -0.52,-1.296 -1.297,-1.296c-4.408,0 -6.611,2.593 -8.556,4.926c-1.814,2.204 -3.37,4.019 -6.481,4.019c-3.111,0 -4.667,-1.815 -6.481,-4.019c-1.945,-2.333 -4.149,-4.926 -8.556,-4.926c-4.408,0 -6.612,2.593 -8.556,4.926c-1.556,1.815 -2.852,3.5 -5.186,3.889l0,-12.056c0,-0.777 -0.518,-1.297 -1.296,-1.297c-0.778,0 -1.297,0.52 -1.297,1.297l0,12.186c-2.332,-0.389 -3.629,-2.075 -5.185,-3.889c-1.944,-2.334 -4.148,-4.927 -8.556,-4.927c-4.407,0 -6.61,2.593 -8.555,4.927c-1.817,2.203 -3.371,4.018 -6.482,4.018c-3.111,0 -4.666,-1.815 -6.481,-4.018c-1.945,-2.334 -4.149,-4.927 -8.556,-4.927c-0.778,0 -1.296,0.52 -1.296,1.297c0,0.777 0.518,1.296 1.296,1.296c3.111,0 4.667,1.816 6.482,4.019c2.463,2.333 4.667,4.926 9.074,4.926c4.407,0 6.611,-2.593 8.555,-4.926c1.815,-2.203 3.369,-4.019 6.482,-4.019c3.112,0 4.665,1.816 6.482,4.019c1.685,2.074 3.759,4.407 7.259,4.926l0,7.259c-2.333,-0.389 -3.629,-2.073 -5.187,-3.889c-1.944,-2.333 -4.146,-4.926 -8.554,-4.926c-4.408,0 -6.611,2.593 -8.556,4.926c-1.814,2.204 -3.37,4.019 -6.481,4.019c-3.111,0 -4.667,-1.815 -6.482,-4.019c-1.945,-2.333 -4.148,-4.926 -8.555,-4.926c-0.778,0 -1.297,0.519 -1.297,1.297c0,0.778 0.519,1.296 1.297,1.296c3.241,-0.129 4.796,1.685 6.481,3.889" style="fill:#fff;fill-rule:nonzero;"/></g></svg>