<?xml version="1.0" encoding="UTF-8" standalone="no"?><!DOCTYPE svg PUBLIC "-//W3C//DTD SVG 1.1//EN" "http://www.w3.org/Graphics/SVG/1.1/DTD/svg11.dtd"><svg width="100%" height="100%" viewBox="0 0 140 140" version="1.1" xmlns="http://www.w3.org/2000/svg" xmlns:xlink="http://www.w3.org/1999/xlink" xml:space="preserve" xmlns:serif="http://www.serif.com/" style="fill-rule:evenodd;clip-rule:evenodd;stroke-linejoin:round;stroke-miterlimit:1.41421;"><circle cx="70" cy="70" r="70" style="fill:#90bc2f;"/><path id="path646" d="M83.674,69.129l-14.077,-14.077c5.748,-1.071 11.648,-0.386 14.082,-0.006c0.38,2.434 1.066,8.334 -0.005,14.083m-28.509,14.431c-0.38,-2.433 -1.066,-8.333 0.006,-14.081l14.076,14.077c-5.749,1.07 -11.649,0.385 -14.082,0.004m-0.71,12.969l-12.258,-12.259c3.795,0.301 7.716,1.36 10.077,2.18c0.82,2.363 1.881,6.283 2.181,10.079m25.739,-18.94l-19.057,-19.056c1.362,-1.047 2.908,-1.836 4.54,-2.43l16.946,16.946c-0.594,1.633 -1.383,3.179 -2.429,4.54m-7.027,4.916l-16.945,-16.947c0.595,-1.632 1.383,-3.178 2.429,-4.54l19.057,19.057c-1.361,1.046 -2.908,1.835 -4.541,2.43m13.401,-30.348c-0.822,-2.363 -1.885,-6.285 -2.185,-10.084l12.265,12.265c-3.797,-0.302 -7.717,-1.361 -10.08,-2.181m21.578,2.615l7.794,-7.793c0.687,-0.688 0.687,-1.8 0,-2.487c-0.687,-0.687 -1.799,-0.686 -2.486,0l-7.793,7.794c-1.031,1.031 -2.499,1.621 -4.182,1.912l-16.954,-16.954c0.292,-1.681 0.883,-3.147 1.915,-4.179l0.03,-0.03l9.61,9.61c0.686,0.688 1.799,0.687 2.485,0c0.686,-0.686 0.687,-1.799 0,-2.485l-9.61,-9.61l5.278,-5.279c0.687,-0.686 0.688,-1.798 0,-2.486c-0.686,-0.686 -1.798,-0.686 -2.485,0l-7.794,7.795c-1.787,1.787 -2.65,4.257 -2.975,6.921c-0.035,0.162 -0.06,0.322 -0.049,0.487c-0.465,4.819 0.762,10.17 1.701,13.355c-5.652,-0.715 -18.127,-1.313 -25.305,5.865c-7.178,7.178 -6.578,19.652 -5.864,25.305c-3.186,-0.939 -8.535,-2.166 -13.356,-1.701c-0.165,-0.011 -0.323,0.013 -0.486,0.048c-2.665,0.326 -5.134,1.189 -6.921,2.976l-7.795,7.794c-0.686,0.686 -0.687,1.798 0,2.485c0.687,0.688 1.8,0.687 2.486,0l7.794,-7.793c1.03,-1.031 2.498,-1.621 4.181,-1.912l16.951,16.95c-0.291,1.684 -0.881,3.152 -1.911,4.183l-0.031,0.03l-9.611,-9.611c-0.686,-0.688 -1.798,-0.687 -2.485,0c-0.686,0.686 -0.687,1.799 0,2.485l9.611,9.611l-5.278,5.278c-0.687,0.687 -0.687,1.799 0,2.487c0.687,0.686 1.799,0.686 2.486,0l7.794,-7.795c5.101,-5.102 2.815,-15.696 1.321,-20.765c5.654,0.715 18.129,1.314 25.307,-5.863c7.177,-7.177 6.578,-19.653 5.862,-25.306c5.069,1.494 15.664,3.78 20.765,-1.322" style="fill:#fff;fill-rule:nonzero;"/></svg>