<?xml version="1.0" encoding="UTF-8" standalone="no"?><!DOCTYPE svg PUBLIC "-//W3C//DTD SVG 1.1//EN" "http://www.w3.org/Graphics/SVG/1.1/DTD/svg11.dtd"><svg width="100%" height="100%" viewBox="0 0 140 140" version="1.1" xmlns="http://www.w3.org/2000/svg" xmlns:xlink="http://www.w3.org/1999/xlink" xml:space="preserve" xmlns:serif="http://www.serif.com/" style="fill-rule:evenodd;clip-rule:evenodd;stroke-linejoin:round;stroke-miterlimit:1.41421;"><circle cx="70" cy="70" r="70" style="fill:#e03d0b;"/><g id="g528"><path id="path540" d="M102.594,113.414c0.077,0.161 0.152,0.322 0.224,0.484c-0.122,-0.273 0.074,0.211 0.076,0.218c0.101,0.275 0.179,0.559 0.244,0.846c0.017,0.078 0.081,0.526 0.026,0.078c0.016,0.121 0.02,0.243 0.025,0.364c0.004,0.115 -0.003,0.23 -0.009,0.344c-0.018,0.308 0.083,-0.374 -0.028,0.087c-0.023,0.098 -0.058,0.195 -0.094,0.289c0.163,-0.442 0.053,-0.144 -0.007,-0.04c-0.053,0.096 -0.266,0.357 0.032,-0.016c-0.063,0.079 -0.133,0.148 -0.204,0.217c-0.075,0.074 -0.355,0.275 0.019,0.001c-0.087,0.064 -0.179,0.118 -0.271,0.172c-0.096,0.058 -0.197,0.106 -0.297,0.154c0.424,-0.204 -0.061,0.017 -0.16,0.048c-0.247,0.081 -0.502,0.138 -0.757,0.189c-0.059,0.012 -0.517,0.079 -0.12,0.028c-0.148,0.019 -0.299,0.031 -0.447,0.043c-0.325,0.027 -0.651,0.036 -0.977,0.036l-0.295,0l-4.491,0l-19.536,0l-22.658,0l-12.638,0l-0.22,0c-0.217,0 -0.434,-0.008 -0.651,-0.016c-0.153,-0.007 -0.306,-0.02 -0.46,-0.032c-0.057,-0.005 -0.543,-0.071 -0.134,-0.012c-0.262,-0.038 -0.522,-0.097 -0.779,-0.165c-0.118,-0.032 -0.235,-0.071 -0.351,-0.11c-0.285,-0.098 0.288,0.149 -0.132,-0.058c-0.13,-0.064 -0.673,-0.465 -0.277,-0.144c-0.12,-0.098 -0.504,-0.59 -0.203,-0.171c-0.057,-0.079 -0.104,-0.165 -0.151,-0.25c-0.171,-0.311 0.133,0.371 0.012,0.033c-0.035,-0.097 -0.059,-0.197 -0.082,-0.296c-0.066,-0.275 0.021,0.386 -0.011,-0.099c-0.015,-0.241 0.003,-0.482 0.03,-0.723c-0.048,0.442 0.014,-0.01 0.03,-0.086c0.029,-0.14 0.067,-0.281 0.105,-0.42c0.082,-0.307 0.192,-0.608 0.306,-0.904c0.214,-0.555 -0.006,-0.022 0.042,-0.098c0.701,-1.096 1.401,-2.194 2.102,-3.292c3.692,-5.784 7.383,-11.568 11.076,-17.353c3.454,-5.413 6.91,-10.825 10.364,-16.238c0.566,-0.885 1.52,-1.939 1.52,-3.042l0,-28.564c-0.552,0.552 -1.104,1.105 -1.657,1.656l18.454,0c-0.552,-0.551 -1.105,-1.104 -1.657,-1.656l0,16.433l0,9.901l0,2.269c0,0.528 0.188,0.917 0.454,1.334c2.811,4.402 5.621,8.806 8.43,13.209c3.997,6.26 7.992,12.519 11.988,18.779c1.398,2.19 2.797,4.382 4.195,6.573c0.485,0.76 1.465,1.065 2.267,0.594c0.755,-0.442 1.08,-1.504 0.593,-2.265c-2.235,-3.501 -4.47,-7.004 -6.705,-10.505c-4.074,-6.381 -8.145,-12.759 -12.218,-19.14c-1.971,-3.091 -3.944,-6.182 -5.918,-9.273c0.076,0.279 0.151,0.557 0.227,0.836l0,-28.745c0,-0.903 -0.754,-1.655 -1.657,-1.655l-17.397,0l-1.056,0c-0.903,0 -1.655,0.752 -1.655,1.655l0,16.433l0,12.312c0.074,-0.279 0.15,-0.557 0.225,-0.836c-2.235,3.502 -4.47,7.004 -6.706,10.506l-12.215,19.138c-1.491,2.336 -2.981,4.67 -4.472,7.005c-0.961,1.508 -1.887,2.799 -2.256,4.608c-0.257,1.255 -0.197,2.534 0.429,3.673c0.59,1.073 1.687,1.718 2.809,2.099c1.086,0.367 2.275,0.413 3.414,0.413l59.326,0c1.545,0 3.067,-0.168 4.474,-0.843c1.144,-0.551 2.036,-1.669 2.288,-2.911c0.337,-1.664 -0.223,-3.286 -0.937,-4.77c-0.391,-0.814 -1.535,-1.023 -2.266,-0.594c-0.824,0.482 -0.986,1.451 -0.594,2.265" style="fill:#fff;fill-rule:nonzero;"/><path id="path544" d="M56.412,46.572l27.089,0c0.902,0 1.656,-0.753 1.656,-1.656c0,-0.903 -0.754,-1.655 -1.656,-1.655l-16.822,0l-10.267,0c-0.903,0 -1.655,0.752 -1.655,1.655c0,0.903 0.752,1.656 1.655,1.656" style="fill:#fff;fill-rule:nonzero;"/><path id="path548" d="M73.091,57.336l5.678,0c0.903,0 1.656,-0.752 1.656,-1.655c0,-0.904 -0.753,-1.655 -1.656,-1.655l-5.678,0c-0.903,0 -1.655,0.751 -1.655,1.655c0,0.903 0.752,1.655 1.655,1.655" style="fill:#fff;fill-rule:nonzero;"/><path id="path552" d="M73.091,67.628l5.678,0c0.903,0 1.656,-0.754 1.656,-1.656c0,-0.903 -0.753,-1.656 -1.656,-1.656l-5.678,0c-0.903,0 -1.655,0.753 -1.655,1.656c0,0.902 0.752,1.656 1.655,1.656" style="fill:#fff;fill-rule:nonzero;"/><path id="path556" d="M46.817,99.26c-0.56,0.731 0.035,-0.009 0.197,-0.174c0.163,-0.168 0.334,-0.328 0.51,-0.483c0.106,-0.093 0.215,-0.185 0.325,-0.274c0.091,-0.074 0.331,-0.257 -0.093,0.069c0.086,-0.066 0.174,-0.131 0.262,-0.194c0.291,-0.21 0.595,-0.4 0.906,-0.579c0.17,-0.098 0.345,-0.189 0.52,-0.276c0.091,-0.046 0.183,-0.09 0.276,-0.133c0.425,-0.197 -0.19,0.072 0.089,-0.039c0.417,-0.168 0.848,-0.3 1.283,-0.409c0.234,-0.058 0.47,-0.104 0.706,-0.145c0.083,-0.014 0.503,-0.065 0.054,-0.01c0.169,-0.021 0.34,-0.034 0.511,-0.046c0.549,-0.038 1.099,-0.02 1.645,0.029c0.051,0.004 0.53,0.067 0.143,0.012c0.151,0.022 0.301,0.049 0.45,0.077c0.367,0.067 0.729,0.158 1.087,0.258c1.496,0.416 2.725,1.066 4.104,1.953c1.591,1.022 3.177,1.914 4.969,2.548c1.508,0.533 3.11,0.807 4.704,0.901c3.794,0.226 7.975,-0.925 11.093,-3.134c0.714,-0.506 1.497,-0.918 2.285,-1.293c0.204,-0.097 0.412,-0.189 0.62,-0.28c-0.429,0.186 0.283,-0.108 0.399,-0.151c0.538,-0.203 1.087,-0.375 1.644,-0.519c0.269,-0.071 0.542,-0.13 0.816,-0.184c0.14,-0.028 0.279,-0.052 0.419,-0.075c0.471,-0.077 -0.349,0.039 0.128,-0.018c0.628,-0.074 1.263,-0.084 1.895,-0.044c0.148,0.008 0.296,0.025 0.442,0.041c-0.387,-0.042 0.231,0.047 0.3,0.061c0.399,0.079 0.79,0.198 1.174,0.335c0.18,0.071 0.194,0.075 0.04,0.009c0.097,0.042 0.193,0.086 0.288,0.133c0.194,0.093 0.383,0.199 0.57,0.307c0.438,0.254 0.63,0.407 0.905,0.643c0.684,0.587 1.667,0.675 2.342,0c0.602,-0.602 0.687,-1.754 0,-2.342c-2.234,-1.916 -5.03,-2.762 -7.956,-2.454c-2.293,0.241 -4.474,1.011 -6.507,2.084c-0.608,0.321 -1.171,0.69 -1.741,1.068c-0.503,0.333 -1.033,0.629 -1.573,0.901c-0.18,0.092 -0.361,0.177 -0.544,0.262c-0.098,0.045 -0.197,0.088 -0.295,0.132c-0.357,0.158 0.35,-0.144 -0.019,0.009c-0.496,0.204 -1.003,0.381 -1.515,0.54c-0.527,0.165 -1.064,0.297 -1.604,0.41c-0.288,0.06 -0.579,0.109 -0.87,0.153c-0.493,0.076 0.342,-0.039 -0.162,0.02c-0.206,0.023 -0.412,0.041 -0.619,0.056c-0.651,0.05 -1.304,0.05 -1.955,0.019c-0.853,-0.042 -1.152,-0.092 -1.998,-0.27c-1.625,-0.343 -3.038,-0.929 -4.464,-1.747c-0.781,-0.447 -1.507,-0.978 -2.278,-1.441c-0.803,-0.481 -1.646,-0.883 -2.511,-1.242c-2.467,-1.029 -5.146,-1.37 -7.772,-0.813c-1.832,0.388 -3.488,1.303 -4.935,2.465c-0.588,0.473 -1.093,1.006 -1.55,1.603c-0.55,0.718 -0.112,1.852 0.594,2.265c0.853,0.5 1.719,0.121 2.266,-0.594" style="fill:#fff;fill-rule:nonzero;"/><path id="path560" d="M84.546,27.088c-0.002,0.164 -0.01,0.326 -0.021,0.49c-0.037,0.517 0.062,-0.31 -0.032,0.194c-0.057,0.309 -0.154,0.611 -0.261,0.905c0.116,-0.319 -0.072,0.141 -0.087,0.17c-0.069,0.138 -0.149,0.271 -0.228,0.402c-0.08,0.131 -0.17,0.257 -0.259,0.381c0.187,-0.26 -0.195,0.202 -0.237,0.247c-0.105,0.111 -0.219,0.214 -0.333,0.316c-0.367,0.33 0.254,-0.17 -0.147,0.119c-0.25,0.18 -0.522,0.329 -0.796,0.466c-0.446,0.222 0.292,-0.102 -0.179,0.071c-0.147,0.055 -0.298,0.096 -0.45,0.137c-0.153,0.042 -0.309,0.071 -0.465,0.101c0.328,-0.061 -0.294,0.018 -0.363,0.021c-0.165,0.007 -0.329,0 -0.492,-0.008c-0.032,-0.001 -0.553,-0.069 -0.201,-0.013c-0.312,-0.049 -0.616,-0.138 -0.916,-0.238c-0.474,-0.159 0.275,0.138 -0.177,-0.071c-0.14,-0.065 -0.275,-0.142 -0.409,-0.217c-0.134,-0.076 -0.261,-0.163 -0.388,-0.249c-0.155,-0.113 -0.166,-0.12 -0.03,-0.02c-0.079,-0.065 -0.155,-0.132 -0.23,-0.201c-0.114,-0.103 -0.22,-0.214 -0.325,-0.325c-0.02,-0.02 -0.337,-0.406 -0.131,-0.136c-0.187,-0.245 -0.344,-0.511 -0.487,-0.783c-0.015,-0.027 -0.213,-0.488 -0.087,-0.17c-0.057,-0.146 -0.104,-0.295 -0.149,-0.445c-0.046,-0.151 -0.08,-0.305 -0.113,-0.46c-0.033,-0.197 -0.038,-0.209 -0.015,-0.034c-0.013,-0.107 -0.021,-0.215 -0.028,-0.323c-0.023,-0.326 -0.006,-0.654 0.028,-0.979c-0.035,0.352 0.042,-0.156 0.048,-0.188c0.034,-0.154 0.079,-0.305 0.126,-0.455c0.008,-0.028 0.192,-0.503 0.055,-0.187c0.062,-0.142 0.135,-0.278 0.207,-0.415c0.072,-0.135 0.155,-0.266 0.239,-0.395c0.056,-0.086 0.114,-0.169 0.176,-0.251c-0.102,0.133 -0.093,0.126 0.029,-0.022c0.198,-0.234 0.423,-0.443 0.657,-0.64c-0.257,0.218 0.13,-0.089 0.157,-0.107c0.127,-0.086 0.261,-0.162 0.395,-0.238c0.135,-0.076 0.275,-0.141 0.416,-0.206c-0.312,0.144 0.157,-0.047 0.185,-0.057c0.15,-0.049 0.303,-0.087 0.455,-0.124c0.103,-0.024 0.207,-0.045 0.312,-0.063c-0.176,0.019 -0.163,0.019 0.038,-0.002c0.326,-0.032 0.655,-0.024 0.98,0c0.518,0.037 -0.309,-0.063 0.195,0.032c0.155,0.028 0.308,0.071 0.461,0.112c0.15,0.041 0.297,0.096 0.444,0.149c-0.319,-0.116 0.141,0.072 0.17,0.087c0.137,0.068 0.27,0.148 0.402,0.228c0.053,0.032 0.535,0.389 0.286,0.189c0.239,0.192 0.454,0.412 0.658,0.64c0.329,0.366 -0.17,-0.254 0.118,0.147c0.09,0.124 0.17,0.256 0.249,0.387c0.08,0.133 0.149,0.271 0.218,0.409c0.222,0.446 -0.102,-0.293 0.071,0.179c0.054,0.147 0.096,0.298 0.137,0.45c0.018,0.061 0.129,0.677 0.087,0.342c0.028,0.215 0.034,0.434 0.037,0.651c0.012,0.902 0.743,1.655 1.655,1.655c0.894,0 1.67,-0.753 1.657,-1.655c-0.046,-3.193 -2.041,-5.865 -5.011,-6.956c-2.988,-1.097 -6.354,0.164 -8.225,2.619c-1.842,2.415 -1.885,5.928 -0.184,8.426c1.783,2.621 5.059,3.801 8.111,2.962c3.138,-0.864 5.263,-3.847 5.309,-7.051c0.013,-0.904 -0.763,-1.656 -1.657,-1.656c-0.912,0 -1.643,0.753 -1.655,1.656" style="fill:#fff;fill-rule:nonzero;"/><path id="path564" d="M64.317,32.115c0.04,-0.17 0.035,-0.158 -0.012,0.035c0.078,-0.306 -0.181,0.155 0.03,-0.077c0.142,-0.091 0.131,-0.086 -0.033,0.016c0.268,-0.163 -0.246,-0.017 0.075,-0.034c0.169,0.04 0.157,0.036 -0.035,-0.012c0.305,0.078 -0.156,-0.181 0.076,0.03c0.091,0.143 0.085,0.131 -0.016,-0.033c0.163,0.268 0.017,-0.246 0.033,0.075c-0.039,0.169 -0.035,0.157 0.013,-0.035c-0.078,0.305 0.18,-0.156 -0.03,0.076c-0.143,0.091 -0.132,0.086 0.032,-0.016c-0.268,0.163 0.247,0.017 -0.073,0.034c-0.171,-0.04 -0.159,-0.036 0.034,0.012c-0.305,-0.078 0.155,0.181 -0.076,-0.03c-0.092,-0.142 -0.086,-0.132 0.015,0.034c-0.162,-0.269 -0.016,0.245 -0.033,-0.075c0.046,0.901 0.719,1.655 1.656,1.655c0.868,0 1.702,-0.753 1.657,-1.655c-0.094,-1.832 -1.423,-3.161 -3.253,-3.254c-1.829,-0.092 -3.168,1.56 -3.254,3.254c-0.092,1.828 1.56,3.167 3.254,3.253c1.827,0.092 3.167,-1.56 3.253,-3.253c0.045,-0.903 -0.789,-1.656 -1.657,-1.656c-0.937,0 -1.61,0.754 -1.656,1.656" style="fill:#fff;fill-rule:nonzero;"/></g></svg>