<?xml version="1.0" encoding="UTF-8" standalone="no"?><!DOCTYPE svg PUBLIC "-//W3C//DTD SVG 1.1//EN" "http://www.w3.org/Graphics/SVG/1.1/DTD/svg11.dtd"><svg width="100%" height="100%" viewBox="0 0 140 140" version="1.1" xmlns="http://www.w3.org/2000/svg" xmlns:xlink="http://www.w3.org/1999/xlink" xml:space="preserve" xmlns:serif="http://www.serif.com/" style="fill-rule:evenodd;clip-rule:evenodd;stroke-linejoin:round;stroke-miterlimit:1.41421;"><circle cx="70" cy="70" r="70" style="fill:#31a0ba;"/><g id="g574"><path id="path586" d="M42.79,71.92c-1.075,-3.087 -1.406,-6.142 -1.035,-9.403c0.003,-0.034 0.073,-0.555 0.021,-0.185c0.022,-0.156 0.048,-0.313 0.074,-0.469c0.051,-0.311 0.113,-0.619 0.177,-0.927c0.139,-0.661 0.316,-1.314 0.516,-1.959c0.183,-0.589 0.397,-1.169 0.629,-1.741c-0.142,0.349 0.055,-0.118 0.07,-0.155c0.062,-0.14 0.127,-0.279 0.192,-0.418c0.149,-0.323 0.312,-0.641 0.478,-0.957c0.283,-0.539 0.595,-1.063 0.923,-1.575c0.163,-0.256 0.334,-0.507 0.508,-0.756c0.087,-0.124 0.176,-0.246 0.266,-0.369c0.059,-0.082 0.119,-0.162 0.18,-0.243c-0.115,0.153 -0.111,0.15 0.01,-0.007c0.778,-0.992 1.651,-1.908 2.586,-2.752c0.225,-0.203 0.456,-0.398 0.69,-0.592c0.115,-0.097 0.234,-0.19 0.353,-0.284c-0.308,0.245 0.087,-0.066 0.126,-0.094c0.525,-0.394 1.073,-0.76 1.633,-1.106c0.518,-0.321 1.053,-0.615 1.596,-0.891c0.272,-0.139 0.549,-0.269 0.827,-0.396c0.14,-0.064 0.281,-0.125 0.422,-0.185c-0.387,0.166 0.215,-0.084 0.282,-0.11c1.111,-0.434 2.26,-0.762 3.425,-1.007c0.257,-0.055 0.515,-0.1 0.774,-0.145c0.156,-0.027 0.313,-0.051 0.468,-0.074c0.521,-0.079 -0.355,0.04 0.169,-0.024c0.638,-0.077 1.28,-0.119 1.923,-0.14c2.738,-0.09 4.974,0.277 7.613,1.216c0.263,0.093 0.523,0.194 0.782,0.298c0.509,0.204 -0.295,-0.13 0.205,0.089c0.154,0.066 0.304,0.136 0.455,0.206c0.602,0.279 1.187,0.592 1.762,0.925c0.571,0.331 1.122,0.694 1.663,1.076c0.133,0.094 0.265,0.192 0.397,0.291c-0.276,-0.206 0.154,0.121 0.169,0.133c0.258,0.204 0.509,0.417 0.758,0.632c0.953,0.824 1.825,1.741 2.622,2.715c0.016,0.019 0.35,0.446 0.131,0.163c0.101,0.13 0.199,0.263 0.297,0.395c0.194,0.267 0.38,0.539 0.563,0.813c0.367,0.551 0.701,1.121 1.019,1.702c0.45,0.83 1.579,1.084 2.372,0.618c0.834,-0.49 1.07,-1.544 0.618,-2.374c-2.791,-5.141 -7.417,-9.031 -12.897,-11.028c-5.3,-1.931 -11.397,-1.779 -16.613,0.341c-5.006,2.035 -9.207,5.685 -11.862,10.404c-2.966,5.273 -3.718,11.605 -2.234,17.453c0.154,0.606 0.342,1.203 0.549,1.793c0.31,0.892 1.159,1.484 2.122,1.226c0.862,-0.231 1.537,-1.23 1.226,-2.123" style="fill:#fff;fill-rule:nonzero;"/><path id="path590" d="M18.141,66.811l9.16,0c0.945,0 1.741,-0.773 1.747,-1.722c0.006,-0.938 -0.777,-1.745 -1.721,-1.745l-9.161,0c-0.945,0 -1.741,0.772 -1.747,1.721c-0.006,0.939 0.778,1.746 1.722,1.746" style="fill:#fff;fill-rule:nonzero;"/><path id="path594" d="M63.47,30.668l0,-9.161c0,-0.944 -0.773,-1.74 -1.722,-1.747c-0.939,-0.006 -1.746,0.778 -1.746,1.722l0,9.161c0,0.944 0.772,1.74 1.722,1.747c0.939,0.005 1.746,-0.777 1.746,-1.722" style="fill:#fff;fill-rule:nonzero;"/><path id="path598" d="M87.307,41.957c2.161,-2.16 4.319,-4.319 6.478,-6.478c0.669,-0.667 0.657,-1.791 -0.013,-2.452c-0.675,-0.666 -1.784,-0.655 -2.452,0.013c-2.159,2.159 -4.318,4.319 -6.478,6.477c-0.667,0.668 -0.657,1.792 0.014,2.453c0.674,0.666 1.783,0.655 2.451,-0.013" style="fill:#fff;fill-rule:nonzero;"/><path id="path602" d="M38.615,39.505c-2.159,-2.16 -4.319,-4.319 -6.477,-6.478c-0.668,-0.667 -1.792,-0.656 -2.453,0.013c-0.666,0.675 -0.655,1.784 0.014,2.452c2.159,2.159 4.318,4.319 6.477,6.478c0.668,0.667 1.792,0.657 2.453,-0.013c0.666,-0.674 0.655,-1.783 -0.014,-2.452" style="fill:#fff;fill-rule:nonzero;"/><path id="path606" d="M51.538,61.002c0.215,-0.498 0.456,-0.981 0.726,-1.451c0.135,-0.233 0.281,-0.46 0.43,-0.683c0.089,-0.134 0.183,-0.266 0.277,-0.397c0.308,-0.428 -0.206,0.255 0.124,-0.157c0.367,-0.461 0.776,-0.888 1.203,-1.293c0.195,-0.184 0.399,-0.359 0.604,-0.53c0.407,-0.339 -0.27,0.197 0.153,-0.121c0.128,-0.097 0.26,-0.189 0.393,-0.28c0.487,-0.338 1.004,-0.633 1.533,-0.9c0.095,-0.048 0.783,-0.352 0.463,-0.22c0.303,-0.125 0.613,-0.231 0.925,-0.332c1.336,-0.43 2.033,-0.515 3.355,-0.524c0.944,-0.006 1.74,-0.768 1.746,-1.721c0.006,-0.935 -0.777,-1.754 -1.722,-1.747c-5.646,0.037 -10.964,3.399 -13.213,8.622c-0.374,0.867 -0.255,1.855 0.635,2.368c0.746,0.432 1.994,0.235 2.368,-0.634" style="fill:#fff;fill-rule:nonzero;"/><path id="path610" d="M93.243,63.559c1.028,-0.937 2.08,-1.679 3.464,-2.411c0.745,-0.395 1.061,-0.526 1.734,-0.774c0.749,-0.276 1.521,-0.49 2.303,-0.662c0.365,-0.081 0.734,-0.144 1.103,-0.201c0.605,-0.093 -0.323,0.032 0.287,-0.036c0.19,-0.022 0.377,-0.037 0.568,-0.052c0.769,-0.062 1.542,-0.062 2.313,-0.024c0.32,0.016 0.639,0.045 0.958,0.077c0.033,0.004 0.555,0.07 0.182,0.017c0.157,0.023 0.313,0.048 0.469,0.074c0.667,0.112 1.326,0.271 1.977,0.457c0.592,0.171 1.172,0.379 1.745,0.612c-0.352,-0.143 0.115,0.054 0.152,0.071c0.141,0.062 0.278,0.128 0.416,0.193c0.321,0.154 0.634,0.32 0.945,0.492c0.531,0.294 1.043,0.621 1.538,0.968c0.125,0.086 0.248,0.177 0.369,0.266c0.405,0.297 -0.267,-0.211 0.128,0.099c0.276,0.218 0.544,0.447 0.807,0.682c0.451,0.4 0.878,0.829 1.286,1.273c0.204,0.223 0.4,0.453 0.591,0.685c0.031,0.038 0.343,0.432 0.1,0.119c0.124,0.159 0.243,0.322 0.361,0.486c0.741,1.027 1.358,2.143 1.865,3.303c-0.166,-0.383 0.033,0.087 0.052,0.139c0.057,0.142 0.111,0.286 0.163,0.431c0.107,0.29 0.2,0.584 0.29,0.879c0.199,0.647 0.351,1.306 0.474,1.971c0.03,0.155 0.053,0.31 0.077,0.466c0.008,0.045 0.075,0.566 0.027,0.166c0.038,0.318 0.063,0.636 0.085,0.955c0.048,0.699 0.044,1.402 0.009,2.102c-0.014,0.319 -0.044,0.638 -0.077,0.956c-0.004,0.035 -0.07,0.556 -0.017,0.184c-0.022,0.157 -0.049,0.312 -0.073,0.468c-0.113,0.668 -0.271,1.327 -0.457,1.977c-0.172,0.593 -0.381,1.173 -0.613,1.745c0.143,-0.351 -0.054,0.115 -0.07,0.152c-0.063,0.14 -0.128,0.278 -0.193,0.416c-0.155,0.32 -0.321,0.635 -0.492,0.946c-0.295,0.53 -0.622,1.041 -0.968,1.539c-0.086,0.124 -0.176,0.246 -0.267,0.368c-0.297,0.404 0.211,-0.267 -0.098,0.127c-0.219,0.277 -0.447,0.544 -0.683,0.808c-0.4,0.451 -0.828,0.877 -1.272,1.285c-0.224,0.204 -0.453,0.4 -0.685,0.592c-0.037,0.031 -0.432,0.342 -0.118,0.1c-0.16,0.124 -0.323,0.242 -0.486,0.36c-1.029,0.742 -2.142,1.359 -3.305,1.865c0.384,-0.166 -0.087,0.033 -0.137,0.053c-0.144,0.057 -0.287,0.11 -0.433,0.163c-0.291,0.106 -0.582,0.2 -0.879,0.29c-0.646,0.199 -1.306,0.351 -1.969,0.474c-0.156,0.029 -0.312,0.053 -0.467,0.078c-0.046,0.007 -0.566,0.074 -0.167,0.025c-0.318,0.039 -0.635,0.064 -0.953,0.085c-0.381,0.026 -0.761,0.035 -1.141,0.035l-0.226,0l-1.317,0l-5.597,0l-19.245,0l-22.695,0l-17.41,0l-4.364,0c-0.944,0 -1.74,0.773 -1.745,1.722c-0.008,0.941 0.776,1.748 1.721,1.748l70.763,0c4.554,0 8.837,-1.561 12.401,-4.369c4.283,-3.374 6.831,-8.607 7.194,-14.007c0.369,-5.499 -1.79,-10.987 -5.636,-14.899c-3.252,-3.306 -7.631,-5.259 -12.225,-5.691c-5.44,-0.513 -10.891,1.487 -14.901,5.144c-0.698,0.636 -0.635,1.814 0.013,2.452c0.696,0.688 1.753,0.623 2.451,-0.014" style="fill:#fff;fill-rule:nonzero;"/><path id="path614" d="M96.762,119.395c3.155,-5.441 2.086,-12.527 -2.624,-16.717c-2.169,-1.931 -4.859,-3.033 -7.734,-3.33c-0.626,-0.065 -1.257,-0.054 -1.886,-0.054l-17.067,0l-20.071,0l-3.055,0c-0.945,0 -1.74,0.773 -1.747,1.722c-0.006,0.939 0.777,1.746 1.722,1.746l40.931,0c1.144,0 1.503,0.053 2.56,0.327c0.301,0.076 0.595,0.172 0.889,0.273c0.145,0.05 0.288,0.107 0.431,0.163c-0.349,-0.137 0.115,0.055 0.153,0.071c0.601,0.273 1.171,0.609 1.715,0.979c0.126,0.086 0.247,0.175 0.369,0.266c-0.308,-0.229 0.087,0.077 0.122,0.106c0.234,0.191 0.455,0.397 0.673,0.606c0.218,0.209 0.423,0.432 0.623,0.658c0.101,0.112 0.197,0.229 0.293,0.346c0.125,0.156 0.126,0.157 0.003,0.003c0.06,0.08 0.12,0.162 0.178,0.244c0.266,0.37 0.504,0.76 0.723,1.158c0.099,0.178 0.188,0.36 0.278,0.543c0.044,0.092 0.087,0.184 0.129,0.277c0.21,0.464 -0.131,-0.338 0.055,0.137c0.17,0.433 0.304,0.878 0.42,1.327c0.053,0.203 0.094,0.407 0.136,0.611c0.021,0.103 0.126,0.846 0.083,0.476c0.268,2.295 -0.196,4.415 -1.305,6.328c-1.122,1.936 1.881,3.669 3.003,1.734" style="fill:#fff;fill-rule:nonzero;"/><path id="path618" d="M75.178,78.029c-0.266,-0.772 -0.385,-1.385 -0.411,-2.072c-0.014,-0.336 0.007,-0.673 0.036,-1.007c0.045,-0.518 -0.06,0.327 0.025,-0.181c0.035,-0.205 0.083,-0.408 0.132,-0.61c0.075,-0.299 0.175,-0.591 0.281,-0.88c0.176,-0.471 -0.139,0.303 0.071,-0.152c0.063,-0.139 0.134,-0.273 0.207,-0.407c0.141,-0.267 0.305,-0.522 0.478,-0.771c0.281,-0.41 -0.217,0.26 0.093,-0.128c0.126,-0.157 0.262,-0.306 0.399,-0.452c0.205,-0.221 0.426,-0.424 0.655,-0.622c0.376,-0.324 -0.281,0.202 0.119,-0.095c0.122,-0.09 0.247,-0.174 0.373,-0.257c0.255,-0.166 0.52,-0.312 0.791,-0.449c0.135,-0.07 0.275,-0.131 0.415,-0.192c-0.386,0.17 0.216,-0.065 0.288,-0.09c0.295,-0.097 0.599,-0.169 0.901,-0.231c0.049,-0.011 0.561,-0.09 0.162,-0.039c0.157,-0.02 0.317,-0.031 0.475,-0.042c0.323,-0.022 0.647,-0.015 0.97,0c0.158,0.008 0.318,0.025 0.475,0.042c-0.36,-0.039 0.265,0.054 0.331,0.068c0.302,0.063 0.601,0.152 0.894,0.249c0.146,0.049 0.287,0.104 0.431,0.161c-0.351,-0.139 0.107,0.061 0.146,0.079c0.274,0.133 0.533,0.288 0.791,0.45c0.128,0.081 0.251,0.168 0.373,0.256c-0.31,-0.22 0.182,0.156 0.236,0.202c0.227,0.197 0.439,0.412 0.644,0.632c0.102,0.111 0.199,0.227 0.295,0.342c-0.252,-0.302 0.056,0.085 0.087,0.127c0.176,0.246 0.33,0.507 0.479,0.771c0.074,0.133 0.139,0.27 0.206,0.406c0.042,0.093 0.084,0.185 0.123,0.278c-0.081,-0.193 -0.082,-0.194 -0.007,-0.002c0.107,0.29 0.19,0.589 0.264,0.888c0.037,0.152 0.067,0.305 0.095,0.459c0.095,0.509 -0.029,-0.355 0.027,0.165c0.034,0.32 0.04,0.643 0.037,0.964c-0.002,0.161 -0.012,0.321 -0.023,0.481c-0.009,0.106 -0.019,0.212 -0.031,0.317c0.027,-0.184 0.024,-0.177 -0.007,0.022c-0.051,0.308 -0.129,0.61 -0.216,0.908c-0.043,0.148 -0.095,0.294 -0.144,0.439c-0.015,0.041 -0.212,0.504 -0.061,0.157c-0.122,0.279 -0.267,0.547 -0.42,0.808c-0.076,0.132 -0.161,0.258 -0.243,0.384c-0.055,0.084 -0.114,0.166 -0.172,0.247c0.118,-0.151 0.116,-0.149 -0.008,0.006c-0.187,0.236 -0.395,0.454 -0.608,0.667c-0.106,0.106 -0.219,0.207 -0.332,0.307c-0.036,0.034 -0.425,0.347 -0.111,0.105c-0.521,0.401 -1.098,0.724 -1.699,0.987c0.381,-0.168 -0.091,0.023 -0.144,0.041c-0.145,0.052 -0.293,0.094 -0.442,0.137c-0.299,0.087 -0.607,0.147 -0.913,0.199c0.394,-0.067 -0.119,0.009 -0.17,0.014c-0.159,0.015 -0.319,0.019 -0.481,0.024c-0.06,0.001 -0.118,0.001 -0.18,0.001c-0.458,0.001 -0.917,0.002 -1.375,0.002c-2.596,0.005 -5.193,0.009 -7.787,0.014c-7.212,0.013 -14.421,0.025 -21.631,0.037c-2.014,0.004 -4.029,0.007 -6.042,0.011c-0.945,0.001 -1.74,0.771 -1.746,1.721c-0.008,0.939 0.777,1.749 1.722,1.747c4.635,-0.008 9.271,-0.017 13.908,-0.025c6.756,-0.01 13.512,-0.022 20.268,-0.034c2.087,-0.003 4.213,0.126 6.198,-0.659c2.793,-1.104 4.867,-3.298 5.865,-6.127c0.964,-2.74 0.499,-5.939 -1.04,-8.372c-1.252,-1.98 -3.181,-3.406 -5.393,-4.137c-2.324,-0.769 -4.8,-0.483 -7.021,0.445c-4.608,1.923 -6.85,7.529 -5.258,12.163c0.307,0.894 1.163,1.483 2.123,1.226c0.866,-0.232 1.533,-1.229 1.227,-2.123" style="fill:#fff;fill-rule:nonzero;"/></g></svg>